<svg width="24" height="24" viewBox="0 0 24 24" fill="none" xmlns="http://www.w3.org/2000/svg">
<path d="M4 11.2498C3.80109 11.2498 3.61032 11.3288 3.46967 11.4695C3.32902 11.6102 3.25 11.8009 3.25 11.9998C3.25 12.1987 3.32902 12.3895 3.46967 12.5302C3.61032 12.6708 3.80109 12.7498 4 12.7498H13.25V17.9998C13.2501 18.1481 13.2942 18.2929 13.3766 18.4162C13.459 18.5394 13.5761 18.6354 13.7131 18.6921C13.85 18.7488 14.0007 18.7637 14.1461 18.7348C14.2915 18.7059 14.4251 18.6346 14.53 18.5298L20.53 12.5298C20.6705 12.3892 20.7493 12.1986 20.7493 11.9998C20.7493 11.8011 20.6705 11.6105 20.53 11.4698L14.53 5.46983C14.4251 5.36507 14.2915 5.29375 14.1461 5.26486C14.0007 5.23598 13.85 5.25083 13.7131 5.30754C13.5761 5.36425 13.459 5.46028 13.3766 5.5835C13.2942 5.70671 13.2501 5.85159 13.25 5.99983V11.2498H4Z" fill="black"/>
</svg>
