<svg width="20" height="20" viewBox="0 0 32 24" fill="none" xmlns="http://www.w3.org/2000/svg">
<path d="M7.08268 24H0.522655V7.97643H7.08268V24ZM3.79914 5.79066C1.70145 5.79066 0 4.47278 0 2.88167C1.50143e-08 2.1174 0.400265 1.38444 1.11274 0.844022C1.82522 0.303604 2.79154 0 3.79914 0C4.80673 0 5.77305 0.303604 6.48553 0.844022C7.19801 1.38444 7.59827 2.1174 7.59827 2.88167C7.59827 4.47278 5.89611 5.79066 3.79914 5.79066ZM31.6347 24H25.0888V16.1998C25.0888 14.3409 25.0394 11.9569 21.6782 11.9569C18.2675 11.9569 17.7448 13.9766 17.7448 16.0659V24H11.1919V7.97643H17.4835V10.1622H17.5753C18.4511 8.90323 20.5905 7.57463 23.7822 7.57463C30.4213 7.57463 31.6418 10.8908 31.6418 15.198V24H31.6347Z" fill="#343A40"/>
</svg>
