<svg width="20" height="20" viewBox="0 0 36 24" fill="none" xmlns="http://www.w3.org/2000/svg">
<path d="M31.459 5.98123C31.4813 6.24372 31.4813 6.50626 31.4813 6.76875C31.4813 14.775 24.2506 24 11.0351 24C6.96369 24 3.18151 23.0062 0 21.2813C0.578475 21.3375 1.13463 21.3563 1.73536 21.3563C5.09479 21.3563 8.18734 20.4 10.6569 18.7688C7.49765 18.7125 4.8501 16.9688 3.93791 14.5687C4.38291 14.625 4.82784 14.6625 5.2951 14.6625C5.94028 14.6625 6.58552 14.5874 7.18619 14.4563C3.89346 13.8937 1.42383 11.4562 1.42383 8.51249V8.43752C2.38047 8.88752 3.49297 9.16876 4.67204 9.20622C2.73644 8.1187 1.46834 6.26247 1.46834 4.16246C1.46834 3.03748 1.82425 2.00623 2.44724 1.10622C5.98472 4.78122 11.3021 7.18118 17.2645 7.44372C17.1533 6.99372 17.0866 6.52502 17.0866 6.05626C17.0866 2.71872 20.2903 0 24.2728 0C26.3418 0 28.2107 0.731248 29.5233 1.9125C31.1474 1.65001 32.7048 1.14374 34.0842 0.450003C33.5502 1.85628 32.4156 3.03754 30.925 3.78748C32.3711 3.6563 33.7728 3.31872 35.0631 2.85002C34.0844 4.04997 32.8606 5.11868 31.459 5.98123Z" fill="#343A40"/>
</svg>
